{
  "source": "C:\\Users\\Peter\\Desktop\\stuff\\MIUN\\quantitative_research\\video_compression\\videos\\BVI-HD\\TreeTrunk_1920x1080_50fps.mp4",
  "output": "C:\\Users\\Peter\\Desktop\\stuff\\MIUN\\quantitative_research\\video_compression\\compressed_videos\\BVI-HD\\av1\\12\\TreeTrunk_1920x1080_50fps_av1.mkv",
  "codec": "av1",
  "ok": "Input #0, mov,mp4,m4a,3gp,3g2,mj2, from 'C:\\Users\\Peter\\Desktop\\stuff\\MIUN\\quantitative_research\\video_compression\\videos\\BVI-HD\\TreeTrunk_1920x1080_50fps.mp4':\n  Metadata:\n    major_brand     : isom\n    minor_version   : 512\n    compatible_brands: isomiso2avc1mp41\n    encoder         : Lavf54.28.101\n  Duration: 00:00:05.00, start: 0.000000, bitrate: 622415 kb/s\n  Stream #0:0[0x1](und): Video: h264 (High 4:4:4 Predictive) (avc1 / 0x31637661), yuv420p(progressive), 1920x1080, 622410 kb/s, 50 fps, 50 tbr, 50 tbn (default)\n    Metadata:\n      handler_name    : VideoHandler\n      vendor_id       : [0][0][0][0]\n[out#0/matroska @ 000001d2fd5a9540] Codec AVOption b:a (set bitrate (in bits/s)) has not been used for any stream. The most likely reason is either wrong type (e.g. a video option with no video streams) or that it is a private option of some decoder which was not actually used for any stream.\nStream mapping:\n  Stream #0:0 -> #0:0 (h264 (native) -> av1 (libsvtav1))\nPress [q] to stop, [?] for help\nSvt[info]: -------------------------------------------\nSvt[info]: SVT [version]:\tSVT-AV1 Encoder Lib v3.1.0-19-g6ecfe8ec\nSvt[info]: SVT [build]  :\tGCC 15.2.0\t 64 bit\nSvt[info]: LIB Build date: Aug 17 2025 11:37:13\nSvt[info]: -------------------------------------------\nSvt[info]: Level of Parallelism: 5\nSvt[info]: Number of PPCS 93\nSvt[info]: [asm level on system : up to avx2]\nSvt[info]: [asm level selected : up to avx2]\nSvt[info]: -------------------------------------------\nSvt[info]: SVT [config]: main profile\ttier (auto)\tlevel (auto)\nSvt[info]: SVT [config]: width / height / fps numerator / fps denominator \t\t: 1920 / 1080 / 50 / 1\nSvt[info]: SVT [config]: bit-depth / color format \t\t\t\t\t: 8 / YUV420\nSvt[info]: SVT [config]: preset / tune / pred struct \t\t\t\t\t: 4 / PSNR / random access\nSvt[info]: SVT [config]: gop size / mini-gop size / key-frame type \t\t\t: 321 / 16 / key frame\nSvt[info]: SVT [config]: BRC mode / target bitrate (kbps)\t\t\t\t: VBR / 12000 \nSvt[info]: SVT [config]: AQ mode / Variance Boost \t\t\t\t\t: 2 / 0\nSvt[info]: SVT [config]: sharpness / luminance-based QP bias \t\t\t\t: 0 / 0\nSvt[info]: SVT [config]: QP scale compress strength \t\t\t\t\t: 0\nSvt[info]: -------------------------------------------\nOutput #0, matroska, to 'C:\\Users\\Peter\\Desktop\\stuff\\MIUN\\quantitative_research\\video_compression\\compressed_videos\\BVI-HD\\av1\\12\\TreeTrunk_1920x1080_50fps_av1.mkv':\n  Metadata:\n    major_brand     : isom\n    minor_version   : 512\n    compatible_brands: isomiso2avc1mp41\n    encoder         : Lavf62.3.100\n  Stream #0:0(und): Video: av1 (AV01 / 0x31305641), yuv420p(tv, progressive), 1920x1080, q=2-31, 12000 kb/s, 50 fps, 1k tbn (default)\n    Metadata:\n      encoder         : Lavc62.11.100 libsvtav1\n      handler_name    : VideoHandler\n      vendor_id       : [0][0][0][0]\n    Side data:\n      cpb: bitrate max/min/avg: 0/0/12000000 buffer size: 12000000 vbv_delay: N/A\nframe=    0 fps=0.0 q=0.0 size=       0KiB time=N/A bitrate=N/A speed=N/A elapsed=0:00:01.54    \nframe=    0 fps=0.0 q=0.0 size=       0KiB time=N/A bitrate=N/A speed=N/A elapsed=0:00:02.09    \nframe=    0 fps=0.0 q=0.0 size=       0KiB time=N/A bitrate=N/A speed=N/A elapsed=0:00:02.60    \nframe=    0 fps=0.0 q=0.0 size=       0KiB time=N/A bitrate=N/A speed=N/A elapsed=0:00:03.15    \nframe=    0 fps=0.0 q=0.0 size=       0KiB time=N/A bitrate=N/A speed=N/A elapsed=0:00:03.74    \nframe=    0 fps=0.0 q=0.0 size=       0KiB time=N/A bitrate=N/A speed=N/A elapsed=0:00:04.36    \nframe=    0 fps=0.0 q=0.0 size=       0KiB time=N/A bitrate=N/A speed=N/A elapsed=0:00:04.93    \nframe=    0 fps=0.0 q=0.0 size=       0KiB time=N/A bitrate=N/A speed=N/A elapsed=0:00:05.44    \nframe=    1 fps=0.2 q=8.0 size=       1KiB time=00:00:00.00 bitrate=N/A speed=   0x elapsed=0:00:05.96    \nframe=    6 fps=0.9 q=25.0 size=       1KiB time=00:00:00.10 bitrate=  57.0kbits/s speed=0.0154x elapsed=0:00:06.48    \nframe=   12 fps=1.7 q=23.0 size=       1KiB time=00:00:00.22 bitrate=  25.9kbits/s speed=0.0314x elapsed=0:00:07.00    \nframe=   18 fps=2.4 q=21.0 size=       1KiB time=00:00:00.34 bitrate=  16.8kbits/s speed=0.045x elapsed=0:00:07.56    \nframe=   25 fps=3.1 q=16.0 size=       1KiB time=00:00:00.48 bitrate=  11.9kbits/s speed=0.0594x elapsed=0:00:08.08    \nframe=   29 fps=3.4 q=23.0 size=       1KiB time=00:00:00.54 bitrate=  10.6kbits/s speed=0.0627x elapsed=0:00:08.61    \nframe=   37 fps=4.0 q=22.0 size=       1KiB time=00:00:00.72 bitrate=   7.9kbits/s speed=0.0784x elapsed=0:00:09.18    \nframe=   44 fps=4.5 q=22.0 size=       1KiB time=00:00:00.86 bitrate=   6.6kbits/s speed=0.0885x elapsed=0:00:09.71    \nframe=   52 fps=5.1 q=21.0 size=       1KiB time=00:00:01.02 bitrate=   5.6kbits/s speed=0.0991x elapsed=0:00:10.29    \nframe=   59 fps=5.5 q=22.0 size=       1KiB time=00:00:01.16 bitrate=   4.9kbits/s speed=0.107x elapsed=0:00:10.81    \nframe=   66 fps=5.8 q=22.0 size=       1KiB time=00:00:01.30 bitrate=   4.4kbits/s speed=0.114x elapsed=0:00:11.36    \nframe=   74 fps=6.2 q=30.0 size=       1KiB time=00:00:01.44 bitrate=   4.0kbits/s speed=0.121x elapsed=0:00:11.90    \nframe=   79 fps=6.3 q=20.0 size=       1KiB time=00:00:01.56 bitrate=   3.7kbits/s speed=0.125x elapsed=0:00:12.46    \nframe=   87 fps=6.7 q=21.0 size=       1KiB time=00:00:01.72 bitrate=   3.3kbits/s speed=0.132x elapsed=0:00:12.99    \nframe=   92 fps=6.8 q=23.0 size=       1KiB time=00:00:01.82 bitrate=   3.1kbits/s speed=0.135x elapsed=0:00:13.52    \nframe=  101 fps=7.2 q=21.0 size=       1KiB time=00:00:02.00 bitrate=   2.9kbits/s speed=0.142x elapsed=0:00:14.07    \nframe=  107 fps=7.3 q=22.0 size=       1KiB time=00:00:02.12 bitrate=   2.7kbits/s speed=0.145x elapsed=0:00:14.61    \nframe=  114 fps=7.5 q=24.0 size=       1KiB time=00:00:02.26 bitrate=   2.5kbits/s speed=0.149x elapsed=0:00:15.16    \nframe=  122 fps=7.8 q=23.0 size=       1KiB time=00:00:02.40 bitrate=   2.4kbits/s speed=0.153x elapsed=0:00:15.70    \nframe=  130 fps=8.0 q=24.0 size=       1KiB time=00:00:02.58 bitrate=   2.2kbits/s speed=0.158x elapsed=0:00:16.28    \nframe=  138 fps=8.2 q=23.0 size=       1KiB time=00:00:02.72 bitrate=   2.1kbits/s speed=0.162x elapsed=0:00:16.81    \nframe=  146 fps=8.4 q=24.0 size=       1KiB time=00:00:02.90 bitrate=   2.0kbits/s speed=0.167x elapsed=0:00:17.39    \nframe=  155 fps=8.6 q=20.0 size=       1KiB time=00:00:03.04 bitrate=   1.9kbits/s speed=0.17x elapsed=0:00:17.93    \nframe=  161 fps=8.7 q=10.0 size=       1KiB time=00:00:03.20 bitrate=   1.8kbits/s speed=0.173x elapsed=0:00:18.48    \nframe=  169 fps=8.9 q=16.0 size=       1KiB time=00:00:03.36 bitrate=   1.7kbits/s speed=0.176x elapsed=0:00:19.05    \nframe=  179 fps=9.1 q=25.0 size=       1KiB time=00:00:03.56 bitrate=   1.6kbits/s speed=0.182x elapsed=0:00:19.57    \nframe=  187 fps=9.3 q=23.0 size=    5120KiB time=00:00:03.72 bitrate=11275.0kbits/s speed=0.185x elapsed=0:00:20.10    \nframe=  195 fps=9.5 q=25.0 size=    5120KiB time=00:00:03.88 bitrate=10810.1kbits/s speed=0.188x elapsed=0:00:20.62    \nframe=  203 fps=9.6 q=23.0 size=    5120KiB time=00:00:04.04 bitrate=10381.9kbits/s speed=0.191x elapsed=0:00:21.13    \nframe=  211 fps=9.7 q=26.0 size=    5120KiB time=00:00:04.20 bitrate=9986.4kbits/s speed=0.194x elapsed=0:00:21.66    \nframe=  217 fps=9.8 q=19.0 size=    5120KiB time=00:00:04.32 bitrate=9709.0kbits/s speed=0.195x elapsed=0:00:22.18    \nframe=  227 fps= 10 q=27.0 size=    5120KiB time=00:00:04.52 bitrate=9279.4kbits/s speed=0.199x elapsed=0:00:22.69    \nframe=  233 fps= 10 q=20.0 size=    5120KiB time=00:00:04.64 bitrate=9039.4kbits/s speed= 0.2x elapsed=0:00:23.21    \n[out#0/matroska @ 000001d2fd5a9540] video:6459KiB audio:0KiB subtitle:0KiB other streams:0KiB global headers:0KiB muxing overhead: 0.029499%\nframe=  250 fps= 11 q=24.0 Lsize=    6461KiB time=00:00:04.98 bitrate=10627.7kbits/s speed=0.211x elapsed=0:00:23.65    \n",
  "seconds": 24.31563663482666,
  "probe_out": {}
}